HIERARCHY
ROOT Hips
{
    OFFSET 0.000000 0.000000 0.000000
    CHANNELS 6 Xposition Yposition Zposition Zrotation Xrotation Yrotation
    JOINT Spine
    {
        OFFSET -0.000000 7.750029 0.000000
        CHANNELS 3 Zrotation Xrotation Yrotation
        JOINT Spine1
        {
            OFFSET -0.000000 19.767460 0.000000
            CHANNELS 3 Zrotation Xrotation Yrotation
            JOINT Neck
            {
                OFFSET -0.000000 19.686279 1.789662
                CHANNELS 3 Zrotation Xrotation Yrotation
                JOINT Head
                {
                    OFFSET -0.000000 13.231757 -1.890251
                    CHANNELS 3 Zrotation Xrotation Yrotation
                    End Site
                    {
                        OFFSET -0.000000 23.628138 0.000000
                    }
                }
            }
            JOINT LeftShoulder
            {
                OFFSET 3.736819 16.910755 -0.280982
                CHANNELS 3 Zrotation Xrotation Yrotation
                JOINT LeftArm
                {
                    OFFSET 13.626117 0.000000 0.000000
                    CHANNELS 3 Zrotation Xrotation Yrotation
                    JOINT LeftForeArm
                    {
                        OFFSET 31.364786 0.000000 0.000000
                        CHANNELS 3 Zrotation Xrotation Yrotation
                        JOINT LeftHand
                        {
                            OFFSET 23.389509 0.000000 0.000000
                            CHANNELS 3 Zrotation Xrotation Yrotation
                            End Site
                            {
                                OFFSET 14.176883 0.000000 0.000000
                            }
                        }
                    }
                }
            }
            JOINT RightShoulder
            {
                OFFSET -3.821718 16.910755 -0.280982
                CHANNELS 3 Zrotation Xrotation Yrotation
                JOINT RightArm
                {
                    OFFSET -13.626117 0.000000 0.000000
                    CHANNELS 3 Zrotation Xrotation Yrotation
                    JOINT RightForeArm
                    {
                        OFFSET -31.364786 0.000000 0.000000
                        CHANNELS 3 Zrotation Xrotation Yrotation
                        JOINT RightHand
                        {
                            OFFSET -23.389509 0.000000 0.000000
                            CHANNELS 3 Zrotation Xrotation Yrotation
                            End Site
                            {
                                OFFSET -14.176883 0.000000 0.000000
                            }
                        }
                    }
                }
            }
        }
    }
    JOINT LeftUpLeg
    {
        OFFSET 9.451255 0.000000 0.000000
        CHANNELS 3 Zrotation Xrotation Yrotation
        JOINT LeftLeg
        {
            OFFSET -0.000000 -41.898624 0.000000
            CHANNELS 3 Zrotation Xrotation Yrotation
            JOINT LeftFoot
            {
                OFFSET -0.000000 -38.481331 0.000000
                CHANNELS 3 Zrotation Xrotation Yrotation
                JOINT LeftToeBase
                {
                    OFFSET -0.000000 -6.143315 14.176883
                    CHANNELS 3 Zrotation Xrotation Yrotation
                    End Site
                    {
                        OFFSET -0.000000 0.000000 3.780502
                    }
                }
            }
        }
    }
    JOINT RightUpLeg
    {
        OFFSET -9.451255 0.000000 0.000000
        CHANNELS 3 Zrotation Xrotation Yrotation
        JOINT RightLeg
        {
            OFFSET -0.000000 -41.898624 0.000000
            CHANNELS 3 Zrotation Xrotation Yrotation
            JOINT RightFoot
            {
                OFFSET -0.000000 -38.481331 0.000000
                CHANNELS 3 Zrotation Xrotation Yrotation
                JOINT RightToeBase
                {
                    OFFSET -0.000000 -6.143315 14.176883
                    CHANNELS 3 Zrotation Xrotation Yrotation
                    End Site
                    {
                        OFFSET -0.000000 0.000000 3.780502
                    }
                }
            }
        }
    }
}
MOTION
Frames:    8
Frame Time:    0.010000
-0.720970    91.072098    26.635548    0.701359    1.103682    166.592438    1.558468    -4.687202    -0.703998    1.359872    6.090772    -0.840221    -6.377040    42.422474    8.576273    -7.189218    -28.063656    4.468300    9.725400    -0.037597    -8.030223    -45.054073    61.431019    -42.505009    13.003317    -36.891781    -98.338646    22.041124    -24.334381    -2.878137    -9.966776    5.976647    1.677429    59.188721    46.376869    30.421467    -10.538928    -36.270241    117.053467    -4.068700    -20.867340    -6.357326    4.532619    0.016168    2.314215    -2.121296    8.698497    -3.296485    -2.616514    -8.308362    19.456369    0.000000    0.000000    0.000000    -1.862542    0.208104    3.232456    1.986584    9.426623    6.012991    0.152501    -8.668201    -20.767565    0.000000    0.000000    0.000000    
-0.736306    91.070160    26.646751    0.703053    1.101589    166.632202    1.544811    -4.620102    -0.714144    1.261248    6.054361    -0.843239    -6.052904    42.347332    8.476589    -7.295588    -27.901762    4.427296    10.071412    0.533378    -7.660300    -43.419956    61.064362    -44.667667    12.328176    -36.795773    -98.805595    22.199568    -24.818743    -2.697929    -9.800334    5.859222    1.666384    59.325985    46.439873    30.068226    -10.721713    -36.432148    117.153915    -4.446978    -20.716446    -6.300025    4.528762    -0.050409    2.348522    -2.109405    8.802175    -3.403714    -2.561437    -8.327050    19.490263    0.000000    0.000000    0.000000    -1.866671    0.177892    3.171373    1.940225    9.501401    6.157073    0.038903    -8.628551    -20.735239    0.000000    0.000000    0.000000    
-0.751971    91.063293    26.674526    0.700132    1.088619    166.639297    1.535282    -4.521526    -0.762227    0.973364    6.066190    -0.874438    -5.304398    42.085896    8.333655    -7.680829    -27.637239    4.368103    10.633054    0.410248    -7.429366    -43.465080    60.945652    -45.196114    12.236405    -36.617435    -98.925018    22.301819    -24.698664    -2.740839    -9.319675    5.573025    1.702663    58.900330    46.612274    30.042707    -10.782825    -36.786060    117.316711    -3.336990    -21.049416    -5.762448    4.543510    -0.129263    2.382552    -2.141101    8.895897    -3.450102    -2.615138    -8.384157    19.495140    0.000000    0.000000    0.000000    -1.876366    0.129413    3.148614    1.948076    9.531802    6.125520    0.082316    -8.652843    -20.703932    0.000000    0.000000    0.000000    
-0.766873    91.058945    26.686045    0.711287    1.093541    166.679535    1.528255    -4.476125    -0.797360    0.846474    6.060482    -0.901928    -4.910657    42.044949    8.246735    -7.858722    -27.522707    4.325768    10.937503    0.392966    -7.394997    -43.333984    60.820709    -45.652283    15.537497    -37.504986    -96.332001    19.993340    -22.874346    -3.385767    -9.116367    5.479933    1.787548    58.603977    46.544949    30.131683    -10.820123    -36.880611    117.430328    -3.397454    -21.057348    -5.848794    4.567219    -0.185658    2.347654    -2.181104    8.986790    -3.433132    -2.570176    -8.403111    19.501055    0.000000    0.000000    0.000000    -1.881737    0.125516    3.160874    2.004203    9.529635    5.999281    0.073446    -8.659641    -20.717058    0.000000    0.000000    0.000000    
-0.784377    91.058441    26.704752    0.716808    1.086828    166.701736    1.488070    -4.446176    -0.786437    0.940714    6.055697    -0.894046    -4.876050    42.092037    8.188834    -7.868061    -27.514406    4.269123    10.882065    0.352186    -7.516824    -43.091446    60.708332    -45.919044    14.430325    -37.411335    -97.400169    21.184555    -23.666292    -3.232133    -9.165951    5.425244    1.790048    58.504890    46.167824    30.198610    -10.356520    -36.435139    117.849419    -3.490593    -21.129110    -6.039820    4.578562    -0.256850    2.411949    -2.187158    9.087459    -3.551760    -2.520093    -8.434007    19.522141    0.000000    0.000000    0.000000    -1.890269    0.086343    3.113674    1.988511    9.582243    6.128895    0.173781    -8.730491    -20.786488    0.000000    0.000000    0.000000    
-0.801495    91.051735    26.727598    0.721762    1.079083    166.718964    1.447483    -4.397338    -0.799456    0.946395    6.030543    -0.904931    -4.734247    42.082745    8.147916    -7.866878    -27.474785    4.267969    11.009860    0.329500    -7.579307    -42.992573    60.541653    -46.170048    13.698386    -37.176567    -98.129730    22.200998    -24.005192    -3.128371    -9.127254    5.318654    1.817518    58.326298    46.190956    30.313852    -10.446119    -36.478142    117.863358    -4.054012    -21.007042    -5.933037    4.597789    -0.330377    2.436727    -2.214044    9.179732    -3.529778    -2.469178    -8.452306    19.457891    0.000000    0.000000    0.000000    -1.889104    0.063045    3.190332    1.995502    9.591702    6.025265    0.071452    -8.674103    -20.729290    0.000000    0.000000    0.000000    
-0.816773    91.050461    26.750624    0.730174    1.070778    166.730011    1.416575    -4.349985    -0.816485    0.993836    6.000153    -0.922365    -4.718325    42.078209    8.158265    -7.818730    -27.428341    4.304375    11.043095    0.301317    -7.644110    -42.824612    60.439426    -46.396942    14.123116    -37.327423    -97.855850    21.979670    -23.781115    -3.119365    -9.129969    5.269287    1.888565    57.606945    46.483791    31.224371    -10.913097    -37.189430    117.442429    -4.181194    -21.206861    -6.495974    4.616644    -0.402468    2.501140    -2.238491    9.273237    -3.533208    -2.505538    -8.481215    19.413387    0.000000    0.000000    0.000000    -1.898019    0.030664    3.208357    2.055606    9.592277    5.917521    0.072679    -8.667349    -20.742661    0.000000    0.000000    0.000000    
-0.838025    91.049232    26.763422    0.732131    1.078158    166.710831    1.386837    -4.297195    -0.826312    1.045240    5.974138    -0.932930    -4.688667    42.119442    8.150908    -7.833556    -27.448200    4.295543    11.068286    0.231646    -7.711746    -42.734154    60.405514    -46.512005    14.335653    -37.457993    -97.719292    21.798069    -23.755472    -3.249832    -9.179010    5.200004    1.943219    57.854675    46.384117    30.962502    -10.703443    -37.168297    117.658447    -3.863189    -21.459410    -6.496002    4.612706    -0.438116    2.575181    -2.236749    9.350330    -3.602920    -2.441371    -8.484763    19.412546    0.000000    0.000000    0.000000    -1.913797    0.009924    3.194022    2.023564    9.637985    6.044578    0.124360    -8.673565    -20.746029    0.000000    0.000000    0.000000    
